{"glyphs":{"0":{"ha":601,"x_min":0,"x_max":0,"o":"m 475 972 l 127 972 b 40 886 93 938 74 919 l 40 86 l 127 0 l 475 0 l 561 86 l 561 886 b 475 972 527 919 508 938 z m 388 173 l 213 173 l 213 454 l 388 280 z m 388 524 l 213 698 l 213 799 l 388 799 z "},"1":{"ha":324,"x_min":0,"x_max":0,"o":"m 107 972 l 21 891 l 21 799 l 109 799 l 109 0 l 281 0 l 281 972 z "},"2":{"ha":597,"x_min":0,"x_max":0,"o":"m 558 620 l 558 886 l 472 972 l 124 972 l 37 886 l 37 668 l 210 668 l 210 799 l 385 799 l 385 692 l 37 347 l 37 0 l 558 0 l 558 331 l 385 331 l 385 173 l 210 173 l 210 274 z "},"3":{"ha":594,"x_min":0,"x_max":0,"o":"m 555 886 l 469 972 l 121 972 l 35 886 l 35 668 l 208 668 l 208 799 l 383 799 l 383 692 l 176 486 l 383 280 l 383 173 l 208 173 l 208 304 l 35 304 l 35 86 l 121 0 l 469 0 l 555 86 l 555 352 l 421 486 l 555 620 z "},"4":{"ha":583,"x_min":0,"x_max":0,"o":"m 369 972 l 369 524 l 194 698 l 194 972 l 21 972 l 21 626 l 369 280 l 369 0 l 541 0 l 541 972 z "},"5":{"ha":596,"x_min":0,"x_max":0,"o":"m 558 642 l 558 972 l 38 972 l 38 626 l 385 280 l 385 173 l 210 173 l 210 304 l 38 304 l 38 86 l 124 0 l 472 0 l 558 86 l 558 352 l 210 698 l 210 799 l 385 799 l 385 642 z "},"6":{"ha":599,"x_min":0,"x_max":0,"o":"m 561 642 l 561 886 l 475 972 l 127 972 l 40 886 l 40 86 l 127 0 l 475 0 l 561 86 l 561 352 l 213 697 l 213 799 l 388 799 l 388 642 z m 388 280 l 388 173 l 213 173 l 213 454 z "},"7":{"ha":574,"x_min":0,"x_max":0,"o":"m 472 972 l 124 972 l 38 886 l 38 686 l 210 686 l 210 799 l 385 799 l 385 695 l 38 350 l 38 0 l 210 0 l 210 277 l 558 623 l 558 886 z "},"8":{"ha":599,"x_min":0,"x_max":0,"o":"m 560 886 l 473 972 l 125 972 l 39 886 l 39 620 l 175 486 l 39 352 l 39 86 l 125 0 l 473 0 l 560 86 l 560 352 l 424 487 l 560 620 z m 211 799 l 387 799 l 387 693 l 299 606 l 212 691 l 211 692 z m 387 173 l 212 173 l 212 279 l 299 364 l 387 278 z "},"9":{"ha":599,"x_min":0,"x_max":0,"o":"m 472 972 l 124 972 l 38 886 l 38 620 l 385 275 l 385 173 l 210 173 l 210 331 l 38 331 l 38 86 l 124 0 l 472 0 l 558 86 l 558 886 z m 385 518 l 210 692 l 210 799 l 385 799 z "},"\u0000":{"ha":0,"x_min":0,"x_max":0,"o":""},"\n":{"ha":0,"x_min":0,"x_max":0,"o":""},"\r":{"ha":0,"x_min":0,"x_max":0,"o":""}," ":{"ha":342,"x_min":0,"x_max":0,"o":""},"!":{"ha":317,"x_min":0,"x_max":0,"o":"m 36 973 l 72 234 l 244 234 l 280 973 z m 236 0 l 236 157 l 80 157 l 80 0 z "},"\"":{"ha":249,"x_min":0,"x_max":0,"o":"m 36 817 l 104 817 l 118 1007 l 22 1007 z m 129 1007 l 143 817 l 211 817 l 225 1007 z "},"#":{"ha":736,"x_min":0,"x_max":0,"o":"m 708 622 l 721 722 l 612 722 l 644 977 l 498 977 l 466 722 l 329 722 l 361 977 l 215 977 l 182 722 l 74 722 l 61 622 l 170 622 l 141 394 l 32 394 l 19 294 l 128 294 l 91 0 l 238 0 l 275 294 l 411 294 l 374 0 l 521 0 l 558 294 l 667 294 l 679 394 l 571 394 l 600 622 z m 424 394 l 287 394 l 316 622 l 453 622 z "},"$":{"ha":594,"x_min":0,"x_max":0,"o":"m 558 706 l 558 886 b 472 972 524 919 506 938 l 348 972 l 348 1066 l 248 1066 l 248 972 l 124 972 b 37 886 90 938 72 919 l 37 626 l 248 417 l 248 173 l 210 173 l 210 327 l 38 327 l 38 86 l 124 0 l 248 0 l 248 -112 l 348 -112 l 348 0 l 472 0 l 558 86 l 558 352 l 348 561 l 348 799 l 385 799 l 385 706 z m 248 661 l 210 698 l 210 799 l 248 799 z m 385 280 l 385 173 l 348 173 l 348 317 z "},"%":{"ha":768,"x_min":0,"x_max":0,"o":"m 291 529 l 291 929 b 248 972 274 946 265 955 l 74 972 b 31 929 57 955 47 946 l 31 529 l 74 486 l 248 486 z m 204 573 l 117 573 l 117 713 l 204 626 z m 204 748 l 117 835 l 117 886 l 204 886 z m 694 486 l 520 486 b 477 443 503 469 493 460 l 477 43 l 520 0 l 694 0 l 737 43 l 737 443 b 694 486 720 460 711 469 z m 651 86 l 563 86 l 563 227 l 651 140 z m 651 262 l 563 349 l 563 400 l 651 400 z m 511 885 l 153 93 l 256 93 l 615 885 z "},"&":{"ha":660,"x_min":0,"x_max":0,"o":"m 560 573 l 560 689 l 386 689 l 386 573 l 332 573 l 211 692 l 211 799 l 442 799 l 429 972 l 125 972 l 39 886 l 39 620 l 174 486 l 39 352 l 39 86 l 125 0 l 473 0 l 560 86 l 560 400 l 639 400 l 639 573 z m 386 173 l 211 173 l 211 280 l 332 400 l 386 400 z "},"'":{"ha":142,"x_min":0,"x_max":0,"o":"m 22 1007 l 36 817 l 104 817 l 118 1007 z "},"(":{"ha":385,"x_min":0,"x_max":0,"o":"m 315 972 l 315 1089 l 231 1089 b 42 900 126 1089 42 1004 l 42 79 b 231 -110 42 -25 126 -110 l 315 -110 l 315 0 l 178 0 l 178 972 z "},")":{"ha":385,"x_min":0,"x_max":0,"o":"m 153 1089 l 69 1089 l 69 972 l 206 972 l 206 0 l 69 0 l 69 -110 l 153 -110 b 342 79 258 -110 342 -25 l 342 900 b 153 1089 342 1004 258 1089 z "},"*":{"ha":261,"x_min":0,"x_max":0,"o":"m 237 941 l 172 941 l 218 987 l 194 1012 l 148 966 l 148 1031 l 113 1031 l 113 966 l 67 1012 l 43 987 l 88 941 l 24 941 l 24 906 l 88 906 l 43 860 l 67 836 l 113 882 l 113 817 l 148 817 l 148 882 l 194 836 l 218 860 l 172 906 l 237 906 z "},"+":{"ha":349,"x_min":0,"x_max":0,"o":"m 224 527 l 224 624 l 124 624 l 124 527 l 26 527 l 26 427 l 124 427 l 124 329 l 224 329 l 224 427 l 322 427 l 322 527 z "},",":{"ha":250,"x_min":0,"x_max":0,"o":"m 21 157 l 147 -75 l 223 -75 l 223 157 z "},"-":{"ha":307,"x_min":0,"x_max":0,"o":"m 283 427 l 283 527 l 24 527 l 24 427 z "},".":{"ha":210,"x_min":0,"x_max":0,"o":"m 183 0 l 183 157 l 26 157 l 26 0 z "},"/":{"ha":563,"x_min":0,"x_max":0,"o":"m 382 972 l 69 7 l 181 7 l 493 972 z "},":":{"ha":218,"x_min":0,"x_max":0,"o":"m 187 181 l 187 338 l 31 338 l 31 181 z m 187 613 l 187 769 l 31 769 l 31 613 z "},";":{"ha":257,"x_min":0,"x_max":0,"o":"m 22 338 l 148 107 l 225 107 l 225 338 z m 212 613 l 212 769 l 55 769 l 55 613 z "},"<":{"ha":253,"x_min":0,"x_max":0,"o":"m 223 640 l 25 527 l 25 458 l 223 345 l 223 440 l 130 493 l 223 546 z "},"=":{"ha":315,"x_min":0,"x_max":0,"o":"m 287 493 l 287 593 l 28 593 l 28 493 z m 287 359 l 287 459 l 28 459 l 28 359 z "},">":{"ha":253,"x_min":0,"x_max":0,"o":"m 29 640 l 29 546 l 122 492 l 29 440 l 29 345 l 227 458 l 227 527 z "},"?":{"ha":615,"x_min":0,"x_max":0,"o":"m 504 972 l 156 972 l 69 886 l 69 686 l 242 686 l 242 799 l 417 799 l 417 695 l 243 488 l 243 234 l 416 234 l 416 416 l 590 623 l 590 886 z m 408 0 l 408 157 l 251 157 l 251 0 z "},"@":{"ha":929,"x_min":0,"x_max":0,"o":"m 818 920 l 113 920 l 40 848 l 40 73 l 113 0 l 585 0 l 624 146 l 185 146 l 185 775 l 745 775 l 745 298 l 685 298 l 684 300 l 685 301 l 685 663 l 612 736 l 319 736 l 246 663 l 246 301 l 319 228 l 579 228 l 594 174 l 847 174 l 890 218 l 890 848 z m 539 374 l 392 374 l 392 590 l 539 590 z "},"A":{"ha":601,"x_min":0,"x_max":0,"o":"m 475 972 l 127 972 l 40 886 l 40 0 l 213 0 l 213 142 l 389 316 l 388 0 l 561 0 l 561 886 z m 389 560 l 213 386 l 214 799 l 389 799 z "},"B":{"ha":593,"x_min":0,"x_max":0,"o":"m 562 886 l 476 972 l 42 972 l 42 0 l 476 0 l 562 86 l 562 352 l 428 486 l 562 620 z m 389 173 l 214 173 l 214 454 l 389 280 z m 389 692 l 214 518 l 214 799 l 389 799 z "},"C":{"ha":579,"x_min":0,"x_max":0,"o":"m 558 668 l 558 886 l 472 972 l 124 972 l 37 886 l 37 86 l 124 0 l 472 0 l 558 86 l 558 304 l 385 304 l 385 173 l 210 173 l 210 799 l 385 799 l 385 668 z "},"D":{"ha":600,"x_min":0,"x_max":0,"o":"m 476 972 l 42 972 l 42 0 l 476 0 l 562 86 l 562 886 z m 389 173 l 214 173 l 214 799 l 389 799 z "},"E":{"ha":572,"x_min":0,"x_max":0,"o":"m 551 668 l 551 886 l 465 972 l 117 972 l 31 886 l 31 620 l 165 486 l 31 352 l 31 86 l 117 0 l 465 0 l 551 86 l 551 304 l 378 304 l 378 173 l 203 173 l 203 280 l 410 486 l 203 692 l 203 799 l 378 799 l 378 668 z "},"F":{"ha":549,"x_min":0,"x_max":0,"o":"m 553 668 l 553 886 l 466 972 l 118 972 l 32 886 l 32 620 l 167 486 l 32 352 l 32 0 l 205 0 l 205 280 l 412 486 l 205 692 l 205 799 l 380 799 l 380 668 z "},"G":{"ha":586,"x_min":0,"x_max":0,"o":"m 558 700 l 558 886 l 472 972 l 124 972 l 37 886 l 37 86 l 124 0 l 472 0 l 558 86 l 558 410 l 315 636 l 315 392 l 385 338 l 385 173 l 210 173 l 210 799 l 385 799 l 385 700 z "},"H":{"ha":604,"x_min":0,"x_max":0,"o":"m 389 972 l 389 681 l 214 508 l 214 522 l 214 522 l 214 972 l 42 972 l 42 0 l 214 0 l 214 264 l 389 438 l 389 0 l 562 0 l 562 972 z "},"I":{"ha":257,"x_min":0,"x_max":0,"o":"m 215 0 l 215 972 l 42 972 l 42 0 z "},"J":{"ha":557,"x_min":0,"x_max":0,"o":"m 344 972 l 344 173 l 169 173 l 169 304 l -4 304 l -4 86 l 82 0 l 430 0 l 516 86 l 516 972 z "},"K":{"ha":671,"x_min":0,"x_max":0,"o":"m 429 477 l 562 610 l 562 972 l 389 972 l 389 681 l 214 508 l 214 972 l 42 972 l 42 0 l 214 0 l 214 264 l 301 350 l 485 0 l 681 0 z "},"L":{"ha":557,"x_min":0,"x_max":0,"o":"m 388 304 l 388 173 l 213 173 l 213 972 l 40 972 l 40 86 l 127 0 l 475 0 l 561 86 l 561 304 z "},"M":{"ha":953,"x_min":0,"x_max":0,"o":"m 665 972 l 476 784 l 287 972 l 42 972 l 42 0 l 214 0 l 214 785 l 389 611 l 389 0 l 562 0 l 562 611 l 737 785 l 737 0 l 910 0 l 910 972 z "},"N":{"ha":604,"x_min":0,"x_max":0,"o":"m 389 972 l 389 658 l 214 832 l 214 972 l 42 972 l 42 0 l 214 0 l 214 589 l 389 415 l 389 0 l 562 0 l 562 972 z "},"O":{"ha":596,"x_min":0,"x_max":0,"o":"m 472 972 l 124 972 l 38 886 l 38 86 l 124 0 l 472 0 l 558 86 l 558 886 z m 385 173 l 210 173 l 210 799 l 385 799 z "},"P":{"ha":569,"x_min":0,"x_max":0,"o":"m 476 972 l 42 972 l 42 0 l 214 0 l 214 204 l 562 550 l 562 886 z m 390 621 l 214 448 l 215 799 l 390 799 z "},"Q":{"ha":596,"x_min":0,"x_max":0,"o":"m 472 972 l 124 972 l 38 886 l 38 86 l 124 0 l 211 0 l 211 -104 l 384 -104 l 384 0 l 472 0 l 558 86 l 558 886 z m 385 173 l 210 173 l 210 799 l 385 799 z "},"R":{"ha":668,"x_min":0,"x_max":0,"o":"m 429 477 l 562 610 l 562 886 l 482 972 l 42 972 l 42 0 l 214 0 l 214 264 l 298 347 l 485 0 l 681 0 z m 389 681 l 214 508 l 215 799 l 389 799 z "},"S":{"ha":571,"x_min":0,"x_max":0,"o":"m 547 706 l 547 886 b 461 972 513 919 495 938 l 113 972 b 26 886 79 938 61 919 l 26 626 l 374 280 l 374 173 l 199 173 l 199 327 l 26 327 l 26 86 l 113 0 l 461 0 l 547 86 l 547 352 l 199 698 l 199 799 l 374 799 l 374 706 z "},"T":{"ha":501,"x_min":0,"x_max":0,"o":"m 511 972 l -10 972 l -10 799 l 164 799 l 164 0 l 337 0 l 337 799 l 511 799 z "},"U":{"ha":601,"x_min":0,"x_max":0,"o":"m 388 972 l 388 173 l 213 173 l 213 972 l 40 972 l 40 86 l 127 0 l 475 0 l 561 86 l 561 972 z "},"V":{"ha":592,"x_min":0,"x_max":0,"o":"m 377 972 l 377 173 l 202 346 l 202 972 l 29 972 l 29 274 l 305 0 l 550 0 l 550 972 z "},"W":{"ha":953,"x_min":0,"x_max":0,"o":"m 737 972 l 737 188 l 562 361 l 562 972 l 389 972 l 389 361 l 214 188 l 214 972 l 42 972 l 42 0 l 287 0 l 476 188 l 665 0 l 910 0 l 910 972 z "},"X":{"ha":588,"x_min":0,"x_max":0,"o":"m 554 972 l 382 972 l 382 707 l 288 612 l 206 692 l 206 972 l 33 972 l 33 620 l 165 486 l 33 352 l 33 0 l 206 0 l 206 279 l 289 360 l 382 265 l 382 0 l 554 0 l 554 352 l 418 487 l 554 620 z "},"Y":{"ha":529,"x_min":0,"x_max":0,"o":"m 525 972 l 352 972 l 352 707 l 259 612 l 177 692 l 177 972 l 4 972 l 4 620 l 178 443 l 178 0 l 351 0 l 351 449 l 525 620 z "},"Z":{"ha":563,"x_min":0,"x_max":0,"o":"m 541 620 l 541 972 l 21 972 l 21 799 l 369 799 l 369 692 l 21 347 l 21 0 l 541 0 l 541 173 l 194 173 l 194 274 z "},"[":{"ha":360,"x_min":0,"x_max":0,"o":"m 291 972 l 291 1089 l 140 1089 b 42 990 86 1089 42 1045 l 42 -11 b 140 -110 42 -66 86 -110 l 291 -110 l 291 0 l 179 0 l 179 972 z "},"\\":{"ha":563,"x_min":0,"x_max":0,"o":"m 181 972 l 69 972 l 382 7 l 493 7 z "},"]":{"ha":361,"x_min":0,"x_max":0,"o":"m 220 1089 l 69 1089 l 69 972 l 181 972 l 181 0 l 69 0 l 69 -110 l 220 -110 b 319 -11 275 -110 319 -66 l 319 990 b 220 1089 319 1045 275 1089 z "},"^":{"ha":360,"x_min":0,"x_max":0,"o":"m 179 972 l 17 714 l 121 714 l 179 807 l 237 714 l 342 714 z "},"_":{"ha":426,"x_min":0,"x_max":0,"o":"m 400 -15 l 400 141 l 25 141 l 25 -15 z "},"`":{"ha":190,"x_min":0,"x_max":0,"o":"m 114 972 l 19 972 l 100 807 l 167 807 z "},"a":{"ha":601,"x_min":0,"x_max":0,"o":"m 475 972 l 127 972 l 40 886 l 40 0 l 213 0 l 213 142 l 389 316 l 388 0 l 561 0 l 561 886 z m 389 560 l 213 386 l 214 799 l 389 799 z "},"b":{"ha":593,"x_min":0,"x_max":0,"o":"m 562 886 l 476 972 l 42 972 l 42 0 l 476 0 l 562 86 l 562 352 l 428 486 l 562 620 z m 389 173 l 214 173 l 214 454 l 389 280 z m 389 692 l 214 518 l 214 799 l 389 799 z "},"c":{"ha":579,"x_min":0,"x_max":0,"o":"m 558 668 l 558 886 l 472 972 l 124 972 l 37 886 l 37 86 l 124 0 l 472 0 l 558 86 l 558 304 l 385 304 l 385 173 l 210 173 l 210 799 l 385 799 l 385 668 z "},"d":{"ha":600,"x_min":0,"x_max":0,"o":"m 476 972 l 42 972 l 42 0 l 476 0 l 562 86 l 562 886 z m 389 173 l 214 173 l 214 799 l 389 799 z "},"e":{"ha":572,"x_min":0,"x_max":0,"o":"m 551 668 l 551 886 l 465 972 l 117 972 l 31 886 l 31 620 l 165 486 l 31 352 l 31 86 l 117 0 l 465 0 l 551 86 l 551 304 l 378 304 l 378 173 l 203 173 l 203 280 l 410 486 l 203 692 l 203 799 l 378 799 l 378 668 z "},"f":{"ha":549,"x_min":0,"x_max":0,"o":"m 553 668 l 553 886 l 466 972 l 118 972 l 32 886 l 32 620 l 167 486 l 32 352 l 32 0 l 205 0 l 205 280 l 412 486 l 205 692 l 205 799 l 380 799 l 380 668 z "},"g":{"ha":586,"x_min":0,"x_max":0,"o":"m 558 700 l 558 886 l 472 972 l 124 972 l 37 886 l 37 86 l 124 0 l 472 0 l 558 86 l 558 410 l 315 636 l 315 392 l 385 338 l 385 173 l 210 173 l 210 799 l 385 799 l 385 700 z "},"h":{"ha":604,"x_min":0,"x_max":0,"o":"m 389 972 l 389 681 l 214 508 l 214 522 l 214 522 l 214 972 l 42 972 l 42 0 l 214 0 l 214 264 l 389 438 l 389 0 l 562 0 l 562 972 z "},"i":{"ha":257,"x_min":0,"x_max":0,"o":"m 215 0 l 215 972 l 42 972 l 42 0 z "},"j":{"ha":557,"x_min":0,"x_max":0,"o":"m 344 972 l 344 173 l 169 173 l 169 304 l -4 304 l -4 86 l 82 0 l 430 0 l 516 86 l 516 972 z "},"k":{"ha":671,"x_min":0,"x_max":0,"o":"m 429 477 l 562 610 l 562 972 l 389 972 l 389 681 l 214 508 l 214 972 l 42 972 l 42 0 l 214 0 l 214 264 l 301 350 l 485 0 l 681 0 z "},"l":{"ha":557,"x_min":0,"x_max":0,"o":"m 388 304 l 388 173 l 213 173 l 213 972 l 40 972 l 40 86 l 127 0 l 475 0 l 561 86 l 561 304 z "},"m":{"ha":953,"x_min":0,"x_max":0,"o":"m 665 972 l 476 784 l 287 972 l 42 972 l 42 0 l 214 0 l 214 785 l 389 611 l 389 0 l 562 0 l 562 611 l 737 785 l 737 0 l 910 0 l 910 972 z "},"n":{"ha":604,"x_min":0,"x_max":0,"o":"m 389 972 l 389 658 l 214 832 l 214 972 l 42 972 l 42 0 l 214 0 l 214 589 l 389 415 l 389 0 l 562 0 l 562 972 z "},"o":{"ha":596,"x_min":0,"x_max":0,"o":"m 472 972 l 124 972 l 38 886 l 38 86 l 124 0 l 472 0 l 558 86 l 558 886 z m 385 173 l 210 173 l 210 799 l 385 799 z "},"p":{"ha":569,"x_min":0,"x_max":0,"o":"m 476 972 l 42 972 l 42 0 l 214 0 l 214 204 l 562 550 l 562 886 z m 390 621 l 214 448 l 215 799 l 390 799 z "},"q":{"ha":596,"x_min":0,"x_max":0,"o":"m 472 972 l 124 972 l 38 886 l 38 86 l 124 0 l 211 0 l 211 -104 l 384 -104 l 384 0 l 472 0 l 558 86 l 558 886 z m 385 173 l 210 173 l 210 799 l 385 799 z "},"r":{"ha":668,"x_min":0,"x_max":0,"o":"m 429 477 l 562 610 l 562 886 l 482 972 l 42 972 l 42 0 l 214 0 l 214 264 l 298 347 l 485 0 l 681 0 z m 389 681 l 214 508 l 215 799 l 389 799 z "},"s":{"ha":571,"x_min":0,"x_max":0,"o":"m 547 706 l 547 886 b 461 972 513 919 495 938 l 113 972 b 26 886 79 938 61 919 l 26 626 l 374 280 l 374 173 l 199 173 l 199 327 l 26 327 l 26 86 l 113 0 l 461 0 l 547 86 l 547 352 l 199 698 l 199 799 l 374 799 l 374 706 z "},"t":{"ha":501,"x_min":0,"x_max":0,"o":"m 511 972 l -10 972 l -10 799 l 164 799 l 164 0 l 337 0 l 337 799 l 511 799 z "},"u":{"ha":601,"x_min":0,"x_max":0,"o":"m 388 972 l 388 173 l 213 173 l 213 972 l 40 972 l 40 86 l 127 0 l 475 0 l 561 86 l 561 972 z "},"v":{"ha":592,"x_min":0,"x_max":0,"o":"m 377 972 l 377 173 l 202 346 l 202 972 l 29 972 l 29 274 l 305 0 l 550 0 l 550 972 z "},"w":{"ha":953,"x_min":0,"x_max":0,"o":"m 737 972 l 737 188 l 562 361 l 562 972 l 389 972 l 389 361 l 214 188 l 214 972 l 42 972 l 42 0 l 287 0 l 476 188 l 665 0 l 910 0 l 910 972 z "},"x":{"ha":588,"x_min":0,"x_max":0,"o":"m 554 972 l 382 972 l 382 707 l 288 612 l 206 692 l 206 972 l 33 972 l 33 620 l 165 486 l 33 352 l 33 0 l 206 0 l 206 279 l 289 360 l 382 265 l 382 0 l 554 0 l 554 352 l 418 487 l 554 620 z "},"y":{"ha":529,"x_min":0,"x_max":0,"o":"m 525 972 l 352 972 l 352 707 l 259 612 l 177 692 l 177 972 l 4 972 l 4 620 l 178 443 l 178 0 l 351 0 l 351 449 l 525 620 z "},"z":{"ha":563,"x_min":0,"x_max":0,"o":"m 541 620 l 541 972 l 21 972 l 21 799 l 369 799 l 369 692 l 21 347 l 21 0 l 541 0 l 541 173 l 194 173 l 194 274 z "},"{":{"ha":288,"x_min":0,"x_max":0,"o":"m 246 972 l 358 972 l 358 1089 l 208 1089 b 109 990 153 1089 109 1045 l 109 538 l 21 538 l 21 441 l 109 441 l 109 -11 b 208 -110 109 -66 153 -110 l 358 -110 l 358 0 l 246 0 l 246 353 b 183 489 246 407 222 456 b 246 626 222 523 246 572 z "},"|":{"ha":208,"x_min":0,"x_max":0,"o":"m 165 -136 l 165 1100 l 42 1100 l 42 -136 z "},"}":{"ha":288,"x_min":0,"x_max":0,"o":"m 178 538 l 178 990 b 80 1089 178 1045 134 1089 l -71 1089 l -71 972 l 41 972 l 41 626 b 104 489 41 572 66 523 b 41 353 66 456 41 407 l 41 0 l -71 0 l -71 -110 l 80 -110 b 178 -11 134 -110 178 -66 l 178 441 l 267 441 l 267 538 z "},"~":{"ha":319,"x_min":0,"x_max":0,"o":"m 25 536 l 25 437 b 294 437 133 349 186 525 l 294 536 b 25 536 187 624 133 448 z "}," ":{"ha":342,"x_min":0,"x_max":0,"o":""},"¡":{"ha":297,"x_min":0,"x_max":0,"o":"m 235 556 l 62 556 l 26 -183 l 270 -183 z m 226 634 l 226 790 l 70 790 l 70 634 z "},"¢":{"ha":569,"x_min":0,"x_max":0,"o":"m 533 404 l 533 622 l 446 708 l 335 708 l 335 820 l 235 820 l 235 708 l 124 708 l 38 622 l 38 86 l 124 0 l 235 0 l 235 -112 l 335 -112 l 335 0 l 446 0 l 533 86 l 533 304 l 359 304 l 359 173 l 335 173 l 335 535 l 359 535 l 359 404 z m 235 173 l 210 173 l 210 535 l 235 535 z "},"£":{"ha":654,"x_min":0,"x_max":0,"o":"m 617 668 l 617 886 l 531 972 l 183 972 l 96 886 l 96 543 l 33 543 l 33 442 l 96 442 l 96 173 l 33 173 l 33 0 l 617 0 l 617 304 l 444 304 l 444 173 l 269 173 l 269 442 l 429 442 l 429 543 l 269 543 l 269 799 l 444 799 l 444 668 z "},"¤":{"ha":399,"x_min":0,"x_max":0,"o":"m 349 446 l 349 533 l 320 562 l 369 611 l 316 664 l 267 615 l 245 637 l 158 637 l 133 611 l 80 664 l 28 611 l 80 559 l 55 533 l 55 446 l 77 424 l 28 375 l 80 323 l 129 372 l 158 343 l 245 343 l 271 368 l 316 323 l 369 375 l 323 421 z m 202 404 l 116 490 l 202 575 l 287 490 z "},"¥":{"ha":588,"x_min":0,"x_max":0,"o":"m 554 972 l 382 972 l 382 707 l 288 612 l 206 692 l 206 972 l 33 972 l 33 620 l 207 443 l 207 404 l 81 404 l 81 304 l 207 304 l 207 270 l 81 270 l 81 170 l 207 170 l 207 0 l 380 0 l 380 170 l 506 170 l 506 270 l 380 270 l 380 304 l 506 304 l 506 404 l 380 404 l 380 449 l 554 620 z "},"§":{"ha":822,"x_min":0,"x_max":0,"o":"m 786 706 l 786 886 b 699 972 752 919 734 938 l 352 972 b 265 886 318 938 299 919 l 265 714 l 117 714 b 31 628 83 681 65 662 l 31 368 l 378 22 l 378 -85 l 203 -85 l 203 69 l 31 69 l 31 -172 l 117 -258 l 465 -258 l 551 -172 l 551 0 l 699 0 l 786 86 l 786 352 l 438 698 l 438 799 l 613 799 l 613 706 z m 613 280 l 613 173 l 472 173 l 203 440 l 203 541 l 350 541 z "},"¨":{"ha":331,"x_min":0,"x_max":0,"o":"m 71 960 l 24 913 l 24 873 l 71 826 l 110 826 l 157 873 l 157 913 l 110 960 z m 91 856 l 53 893 l 91 930 l 128 893 z m 259 960 l 220 960 l 173 913 l 173 873 l 220 826 l 259 826 l 306 873 l 306 913 z m 239 856 l 202 893 l 239 930 l 277 893 z "},"©":{"ha":726,"x_min":0,"x_max":0,"o":"m 363 790 b 29 456 179 790 29 640 b 363 123 29 272 179 123 b 696 456 547 123 696 272 b 363 790 696 640 547 790 z m 363 170 b 76 456 205 170 76 298 b 363 743 76 614 205 743 b 649 456 521 743 649 614 b 363 170 649 298 521 170 z m 454 706 l 271 706 l 197 632 l 197 281 b 271 207 226 252 242 236 l 454 207 l 528 281 l 528 391 l 405 391 l 405 330 l 320 330 l 320 583 l 405 583 l 405 516 l 528 516 l 528 632 b 454 706 500 661 483 677 z "},"«":{"ha":599,"x_min":0,"x_max":0,"o":"m 327 579 l 327 733 l 69 493 l 327 254 l 327 408 l 234 493 z m 565 733 l 307 493 l 565 254 l 565 408 l 472 493 l 565 579 z "},"­":{"ha":0,"x_min":0,"x_max":0,"o":""},"®":{"ha":401,"x_min":0,"x_max":0,"o":"m 243 948 l 144 948 l 144 698 l 172 698 l 172 698 l 187 698 l 187 766 l 205 776 l 223 698 l 266 698 l 242 794 l 250 798 b 269 829 257 809 262 818 l 269 923 b 243 949 259 933 253 939 z m 226 824 l 187 804 l 187 906 l 226 906 z m 200 989 b 28 817 105 989 28 912 b 200 644 28 721 105 644 b 373 817 296 644 373 721 b 200 989 373 912 296 989 z m 200 670 b 54 817 120 670 54 736 b 200 963 54 897 120 963 b 347 817 281 963 347 897 b 200 670 347 736 281 670 z "},"°":{"ha":276,"x_min":0,"x_max":0,"o":"m 171 1006 l 104 1006 l 25 926 l 25 859 l 104 780 l 171 780 l 251 859 l 251 926 l 171 1006 z m 138 830 l 75 893 l 138 956 l 201 893 z "},"±":{"ha":354,"x_min":0,"x_max":0,"o":"m 227 527 l 227 624 l 127 624 l 127 527 l 29 527 l 29 427 l 127 427 l 127 329 l 227 329 l 227 427 l 324 427 l 324 527 z m 306 154 l 306 254 l 47 254 l 47 154 z "},"´":{"ha":190,"x_min":0,"x_max":0,"o":"m 75 972 l 22 807 l 89 807 l 170 972 z "},"¶":{"ha":668,"x_min":0,"x_max":0,"o":"m 111 972 l 25 886 l 25 550 l 297 317 l 297 -129 l 431 -129 l 431 799 l 492 799 l 492 -129 l 626 -129 l 626 972 z "},"·":{"ha":301,"x_min":0,"x_max":0,"o":"m 280 446 l 151 576 l 21 446 l 151 317 z "},"¸":{"ha":167,"x_min":0,"x_max":0,"o":"m 92 65 l 92 136 l 25 136 l 25 37 l 92 -43 l 92 -84 l 24 -84 l 24 -40 l -43 -40 l -43 -117 l -9 -151 l 126 -151 l 159 -117 l 159 -15 z "},"»":{"ha":599,"x_min":0,"x_max":0,"o":"m 271 733 l 271 579 l 364 493 l 271 408 l 271 254 l 529 493 z m 33 733 l 33 579 l 126 493 l 33 408 l 33 254 l 291 493 z "},"¿":{"ha":660,"x_min":0,"x_max":0,"o":"m 417 105 l 417 -9 l 242 -9 l 242 95 l 416 302 l 416 556 l 243 556 l 243 374 l 69 167 l 69 -95 l 156 -182 l 504 -182 l 590 -95 l 590 105 z m 408 634 l 408 790 l 251 790 l 251 634 z "},"À":{"ha":601,"x_min":0,"x_max":0,"o":"m 330 1022 l 277 1186 l 182 1186 l 263 1022 z m 475 972 l 127 972 l 40 886 l 40 0 l 213 0 l 213 142 l 389 316 l 388 0 l 561 0 l 561 886 z m 389 560 l 213 386 l 214 799 l 389 799 z "},"Á":{"ha":601,"x_min":0,"x_max":0,"o":"m 375 1186 l 280 1186 l 227 1022 l 294 1022 z m 475 972 l 127 972 l 40 886 l 40 0 l 213 0 l 213 142 l 389 316 l 388 0 l 561 0 l 561 886 z m 389 560 l 213 386 l 214 799 l 389 799 z "},"Â":{"ha":601,"x_min":0,"x_max":0,"o":"m 301 1081 l 338 1022 l 404 1022 l 301 1186 l 197 1022 l 263 1022 z m 475 972 l 127 972 l 40 886 l 40 0 l 213 0 l 213 142 l 389 316 l 388 0 l 561 0 l 561 886 z m 389 560 l 213 386 l 214 799 l 389 799 z "},"Ã":{"ha":601,"x_min":0,"x_max":0,"o":"m 418 1061 l 418 1147 b 184 1147 324 1224 278 1071 l 184 1061 b 418 1061 278 985 324 1138 z m 475 972 l 127 972 l 40 886 l 40 0 l 213 0 l 213 142 l 389 316 l 388 0 l 561 0 l 561 886 z m 389 560 l 213 386 l 214 799 l 389 799 z "},"Ä":{"ha":601,"x_min":0,"x_max":0,"o":"m 246 1040 l 293 1087 l 293 1127 l 246 1174 l 207 1174 l 159 1127 l 159 1087 l 207 1040 z m 226 1144 l 264 1107 l 226 1070 l 189 1107 z m 395 1040 l 442 1087 l 442 1127 l 395 1174 l 355 1174 l 308 1127 l 308 1087 l 355 1040 z m 375 1144 l 412 1107 l 375 1070 l 338 1107 z m 475 972 l 127 972 l 40 886 l 40 0 l 213 0 l 213 142 l 389 316 l 388 0 l 561 0 l 561 886 z m 389 560 l 213 386 l 214 799 l 389 799 z "},"Å":{"ha":601,"x_min":0,"x_max":0,"o":"m 349 972 l 414 1037 l 414 1103 l 334 1183 l 267 1183 l 188 1103 l 188 1037 l 252 972 l 127 972 l 40 886 l 40 0 l 213 0 l 213 142 l 389 316 l 388 0 l 561 0 l 561 886 l 475 972 z m 301 1133 l 363 1070 l 301 1007 l 238 1070 z m 388 560 l 213 386 l 213 799 l 388 799 z "},"Æ":{"ha":931,"x_min":0,"x_max":0,"o":"m 909 668 l 909 886 l 823 972 l 127 972 l 40 886 l 40 0 l 213 0 l 213 142 l 389 316 l 388 0 l 823 0 l 909 86 l 909 304 l 736 304 l 736 173 l 561 173 l 561 280 l 768 486 l 561 692 l 561 799 l 736 799 l 736 668 z m 389 560 l 213 386 l 214 799 l 389 799 z "},"Ç":{"ha":579,"x_min":0,"x_max":0,"o":"m 558 668 l 558 886 l 472 972 l 124 972 l 37 886 l 37 86 l 124 0 l 252 0 l 252 -15 l 320 -95 l 320 -136 l 252 -136 l 252 -92 l 184 -92 l 184 -170 l 218 -203 l 353 -203 l 387 -170 l 387 -67 l 330 0 l 472 0 l 558 86 l 558 304 l 385 304 l 385 173 l 210 173 l 210 799 l 385 799 l 385 668 z "},"È":{"ha":572,"x_min":0,"x_max":0,"o":"m 351 1022 l 298 1186 l 203 1186 l 284 1022 z m 551 668 l 551 886 l 465 972 l 117 972 l 31 886 l 31 620 l 165 486 l 31 352 l 31 86 l 117 0 l 465 0 l 551 86 l 551 304 l 378 304 l 378 173 l 203 173 l 203 280 l 410 486 l 203 692 l 203 799 l 378 799 l 378 668 z "},"É":{"ha":572,"x_min":0,"x_max":0,"o":"m 381 1186 l 286 1186 l 233 1022 l 300 1022 z m 551 668 l 551 886 l 465 972 l 117 972 l 31 886 l 31 620 l 165 486 l 31 352 l 31 86 l 117 0 l 465 0 l 551 86 l 551 304 l 378 304 l 378 173 l 203 173 l 203 280 l 410 486 l 203 692 l 203 799 l 378 799 l 378 668 z "},"Ê":{"ha":572,"x_min":0,"x_max":0,"o":"m 292 1081 l 329 1022 l 396 1022 l 292 1186 l 188 1022 l 255 1022 z m 551 668 l 551 886 l 465 972 l 117 972 l 31 886 l 31 620 l 165 486 l 31 352 l 31 86 l 117 0 l 465 0 l 551 86 l 551 304 l 378 304 l 378 173 l 203 173 l 203 280 l 410 486 l 203 692 l 203 799 l 378 799 l 378 668 z "},"Ë":{"ha":572,"x_min":0,"x_max":0,"o":"m 236 1040 l 283 1087 l 283 1127 l 236 1174 l 197 1174 l 150 1127 l 150 1087 l 197 1040 z m 216 1144 l 254 1107 l 216 1070 l 179 1107 z m 385 1040 l 432 1087 l 432 1127 l 385 1174 l 346 1174 l 298 1127 l 298 1087 l 346 1040 z m 365 1144 l 403 1107 l 365 1070 l 328 1107 z m 551 668 l 551 886 l 465 972 l 117 972 l 31 886 l 31 620 l 165 486 l 31 352 l 31 86 l 117 0 l 465 0 l 551 86 l 551 304 l 378 304 l 378 173 l 203 173 l 203 280 l 410 486 l 203 692 l 203 799 l 378 799 l 378 668 z "},"Ì":{"ha":257,"x_min":0,"x_max":0,"o":"m 190 1022 l 136 1186 l 42 1186 l 122 1022 z m 215 0 l 215 972 l 42 972 l 42 0 z "},"Í":{"ha":257,"x_min":0,"x_max":0,"o":"m 202 1186 l 107 1186 l 54 1022 l 121 1022 z m 215 0 l 215 972 l 42 972 l 42 0 z "},"Î":{"ha":256,"x_min":0,"x_max":0,"o":"m 127 1081 l 165 1022 l 231 1022 l 127 1186 l 24 1022 l 90 1022 z m 214 0 l 214 972 l 41 972 l 41 0 z "},"Ï":{"ha":256,"x_min":0,"x_max":0,"o":"m 120 1087 l 120 1127 l 73 1174 l 33 1174 l -14 1127 l -14 1087 l 33 1040 l 73 1040 z m 16 1107 l 53 1144 l 90 1107 l 53 1070 z m 222 1174 l 182 1174 l 135 1127 l 135 1087 l 182 1040 l 222 1040 l 269 1087 l 269 1127 z m 202 1070 l 165 1107 l 202 1144 l 239 1107 z m 214 0 l 214 972 l 41 972 l 41 0 z "},"Ð":{"ha":639,"x_min":0,"x_max":0,"o":"m 514 972 l 80 972 l 80 527 l 7 527 l 7 427 l 80 427 l 80 0 l 514 0 l 601 86 l 601 886 z m 427 173 l 252 173 l 252 427 l 332 427 l 332 527 l 252 527 l 252 799 l 427 799 z "},"Ñ":{"ha":604,"x_min":0,"x_max":0,"o":"m 419 1061 l 419 1147 b 185 1147 326 1224 279 1071 l 185 1061 b 419 1061 279 985 325 1138 z m 390 972 l 390 658 l 314 734 b 215 972 250 797 215 883 l 42 972 l 42 0 l 215 0 l 215 589 l 290 514 b 390 275 354 450 390 364 l 390 0 l 562 0 l 562 972 z "},"Ò":{"ha":596,"x_min":0,"x_max":0,"o":"m 374 1022 l 320 1186 l 226 1186 l 306 1022 z m 472 972 l 124 972 l 37 886 l 37 86 l 124 0 l 472 0 l 558 86 l 558 886 z m 385 173 l 210 173 l 210 799 l 385 799 z "},"Ó":{"ha":596,"x_min":0,"x_max":0,"o":"m 389 1186 l 295 1186 l 241 1022 l 309 1022 z m 472 972 l 124 972 l 37 886 l 37 86 l 124 0 l 472 0 l 558 86 l 558 886 z m 385 173 l 210 173 l 210 799 l 385 799 z "},"Ô":{"ha":596,"x_min":0,"x_max":0,"o":"m 298 1081 l 335 1022 l 402 1022 l 298 1186 l 194 1022 l 261 1022 z m 472 972 l 124 972 l 37 886 l 37 86 l 124 0 l 472 0 l 558 86 l 558 886 z m 385 173 l 210 173 l 210 799 l 385 799 z "},"Õ":{"ha":596,"x_min":0,"x_max":0,"o":"m 415 1061 l 415 1147 b 181 1147 321 1224 275 1071 l 181 1061 b 415 1061 275 985 321 1138 z m 472 972 l 124 972 l 38 886 l 38 86 l 124 0 l 472 0 l 558 86 l 558 886 z m 385 173 l 210 173 l 210 799 l 385 799 z "},"Ö":{"ha":596,"x_min":0,"x_max":0,"o":"m 243 1040 l 290 1087 l 290 1127 l 243 1174 l 204 1174 l 156 1127 l 156 1087 l 204 1040 z m 223 1144 l 261 1107 l 223 1070 l 186 1107 z m 392 1040 l 439 1087 l 439 1127 l 392 1174 l 352 1174 l 305 1127 l 305 1087 l 352 1040 z m 372 1144 l 409 1107 l 372 1070 l 335 1107 z m 472 972 l 124 972 l 38 886 l 38 86 l 124 0 l 472 0 l 558 86 l 558 886 z m 385 173 l 210 173 l 210 799 l 385 799 z "},"×":{"ha":331,"x_min":0,"x_max":0,"o":"m 305 546 l 234 617 l 165 548 l 96 617 l 25 546 l 94 477 l 25 408 l 96 337 l 165 406 l 234 337 l 305 408 l 236 477 z "},"Ø":{"ha":600,"x_min":0,"x_max":0,"o":"m 594 1053 l 504 1053 l 469 972 l 126 972 l 39 886 l 39 86 l 69 57 l 6 -89 l 96 -89 l 134 0 l 474 0 l 560 86 l 560 886 l 533 913 l 594 1053 z m 387 173 l 212 173 l 212 178 l 387 579 z m 387 785 l 212 384 l 212 799 l 387 799 z "},"Ù":{"ha":601,"x_min":0,"x_max":0,"o":"m 361 1022 l 308 1186 l 213 1186 l 294 1022 z m 388 972 l 388 173 l 213 173 l 213 972 l 40 972 l 40 86 l 127 0 l 475 0 l 561 86 l 561 972 z "},"Ú":{"ha":601,"x_min":0,"x_max":0,"o":"m 403 1186 l 309 1186 l 255 1022 l 323 1022 z m 388 972 l 388 173 l 213 173 l 213 972 l 40 972 l 40 86 l 127 0 l 475 0 l 561 86 l 561 972 z "},"Û":{"ha":601,"x_min":0,"x_max":0,"o":"m 301 1081 l 338 1022 l 404 1022 l 301 1186 l 197 1022 l 263 1022 z m 388 972 l 388 173 l 213 173 l 213 972 l 40 972 l 40 86 l 127 0 l 475 0 l 561 86 l 561 972 z "},"Ü":{"ha":601,"x_min":0,"x_max":0,"o":"m 246 1040 l 293 1087 l 293 1127 l 246 1174 l 206 1174 l 159 1127 l 159 1087 l 206 1040 z m 226 1144 l 263 1107 l 226 1070 l 189 1107 z m 395 1040 l 442 1087 l 442 1127 l 395 1174 l 355 1174 l 308 1127 l 308 1087 l 355 1040 z m 375 1144 l 412 1107 l 375 1070 l 338 1107 z m 388 972 l 388 173 l 213 173 l 213 972 l 40 972 l 40 86 l 127 0 l 475 0 l 561 86 l 561 972 z "},"Ý":{"ha":529,"x_min":0,"x_max":0,"o":"m 367 1186 l 273 1186 l 219 1022 l 287 1022 z m 525 972 l 352 972 l 352 707 l 259 612 l 177 692 l 177 972 l 4 972 l 4 620 l 178 443 l 178 0 l 351 0 l 351 450 l 525 620 z "},"Þ":{"ha":583,"x_min":0,"x_max":0,"o":"m 476 816 l 214 816 l 214 972 l 42 972 l 42 0 l 214 0 l 214 157 l 476 157 l 562 243 l 562 729 z m 389 329 l 214 329 l 214 643 l 389 643 z "},"ß":{"ha":592,"x_min":0,"x_max":0,"o":"m 561 886 l 475 972 l 127 972 l 40 886 l 40 0 l 213 0 l 213 454 l 388 280 l 388 173 l 264 173 l 264 0 l 475 0 l 561 86 l 561 352 l 426 486 l 561 620 z m 388 692 l 213 518 l 213 799 l 388 799 z "},"à":{"ha":601,"x_min":0,"x_max":0,"o":"m 330 1022 l 277 1186 l 182 1186 l 263 1022 z m 475 972 l 127 972 l 40 886 l 40 0 l 213 0 l 213 142 l 389 316 l 388 0 l 561 0 l 561 886 z m 389 560 l 213 386 l 214 799 l 389 799 z "},"á":{"ha":601,"x_min":0,"x_max":0,"o":"m 375 1186 l 280 1186 l 227 1022 l 294 1022 z m 475 972 l 127 972 l 40 886 l 40 0 l 213 0 l 213 142 l 389 316 l 388 0 l 561 0 l 561 886 z m 389 560 l 213 386 l 214 799 l 389 799 z "},"â":{"ha":601,"x_min":0,"x_max":0,"o":"m 301 1081 l 338 1022 l 404 1022 l 301 1186 l 197 1022 l 263 1022 z m 475 972 l 127 972 l 40 886 l 40 0 l 213 0 l 213 142 l 389 316 l 388 0 l 561 0 l 561 886 z m 389 560 l 213 386 l 214 799 l 389 799 z "},"ã":{"ha":601,"x_min":0,"x_max":0,"o":"m 418 1061 l 418 1147 b 184 1147 324 1224 278 1071 l 184 1061 b 418 1061 278 985 324 1138 z m 475 972 l 127 972 l 40 886 l 40 0 l 213 0 l 213 142 l 389 316 l 388 0 l 561 0 l 561 886 z m 389 560 l 213 386 l 214 799 l 389 799 z "},"ä":{"ha":601,"x_min":0,"x_max":0,"o":"m 246 1040 l 293 1087 l 293 1127 l 246 1174 l 207 1174 l 159 1127 l 159 1087 l 207 1040 z m 226 1144 l 264 1107 l 226 1070 l 189 1107 z m 395 1040 l 442 1087 l 442 1127 l 395 1174 l 355 1174 l 308 1127 l 308 1087 l 355 1040 z m 375 1144 l 412 1107 l 375 1070 l 338 1107 z m 475 972 l 127 972 l 40 886 l 40 0 l 213 0 l 213 142 l 389 316 l 388 0 l 561 0 l 561 886 z m 389 560 l 213 386 l 214 799 l 389 799 z "},"å":{"ha":601,"x_min":0,"x_max":0,"o":"m 349 972 l 414 1037 l 414 1103 l 334 1183 l 267 1183 l 188 1103 l 188 1037 l 252 972 l 127 972 l 40 886 l 40 0 l 213 0 l 213 142 l 389 316 l 388 0 l 561 0 l 561 886 l 475 972 z m 301 1133 l 363 1070 l 301 1007 l 238 1070 z m 388 560 l 213 386 l 213 799 l 388 799 z "},"æ":{"ha":931,"x_min":0,"x_max":0,"o":"m 909 668 l 909 886 l 823 972 l 127 972 l 40 886 l 40 0 l 213 0 l 213 142 l 389 316 l 388 0 l 823 0 l 909 86 l 909 304 l 736 304 l 736 173 l 561 173 l 561 280 l 768 486 l 561 692 l 561 799 l 736 799 l 736 668 z m 389 560 l 213 386 l 214 799 l 389 799 z "},"ç":{"ha":579,"x_min":0,"x_max":0,"o":"m 558 668 l 558 886 l 472 972 l 124 972 l 37 886 l 37 86 l 124 0 l 252 0 l 252 -15 l 320 -95 l 320 -136 l 252 -136 l 252 -92 l 184 -92 l 184 -170 l 218 -203 l 353 -203 l 387 -170 l 387 -67 l 330 0 l 472 0 l 558 86 l 558 304 l 385 304 l 385 173 l 210 173 l 210 799 l 385 799 l 385 668 z "},"è":{"ha":572,"x_min":0,"x_max":0,"o":"m 351 1022 l 298 1186 l 203 1186 l 284 1022 z m 551 668 l 551 886 l 465 972 l 117 972 l 31 886 l 31 620 l 165 486 l 31 352 l 31 86 l 117 0 l 465 0 l 551 86 l 551 304 l 378 304 l 378 173 l 203 173 l 203 280 l 410 486 l 203 692 l 203 799 l 378 799 l 378 668 z "},"é":{"ha":572,"x_min":0,"x_max":0,"o":"m 381 1186 l 286 1186 l 233 1022 l 300 1022 z m 551 668 l 551 886 l 465 972 l 117 972 l 31 886 l 31 620 l 165 486 l 31 352 l 31 86 l 117 0 l 465 0 l 551 86 l 551 304 l 378 304 l 378 173 l 203 173 l 203 280 l 410 486 l 203 692 l 203 799 l 378 799 l 378 668 z "},"ê":{"ha":572,"x_min":0,"x_max":0,"o":"m 292 1081 l 329 1022 l 396 1022 l 292 1186 l 188 1022 l 255 1022 z m 551 668 l 551 886 l 465 972 l 117 972 l 31 886 l 31 620 l 165 486 l 31 352 l 31 86 l 117 0 l 465 0 l 551 86 l 551 304 l 378 304 l 378 173 l 203 173 l 203 280 l 410 486 l 203 692 l 203 799 l 378 799 l 378 668 z "},"ë":{"ha":572,"x_min":0,"x_max":0,"o":"m 236 1040 l 283 1087 l 283 1127 l 236 1174 l 197 1174 l 150 1127 l 150 1087 l 197 1040 z m 216 1144 l 254 1107 l 216 1070 l 179 1107 z m 385 1040 l 432 1087 l 432 1127 l 385 1174 l 346 1174 l 298 1127 l 298 1087 l 346 1040 z m 365 1144 l 403 1107 l 365 1070 l 328 1107 z m 551 668 l 551 886 l 465 972 l 117 972 l 31 886 l 31 620 l 165 486 l 31 352 l 31 86 l 117 0 l 465 0 l 551 86 l 551 304 l 378 304 l 378 173 l 203 173 l 203 280 l 410 486 l 203 692 l 203 799 l 378 799 l 378 668 z "},"ì":{"ha":256,"x_min":0,"x_max":0,"o":"m 190 1022 l 136 1186 l 42 1186 l 122 1022 z m 215 0 l 215 972 l 42 972 l 42 0 z "},"í":{"ha":256,"x_min":0,"x_max":0,"o":"m 202 1186 l 107 1186 l 54 1022 l 121 1022 z m 215 0 l 215 972 l 42 972 l 42 0 z "},"î":{"ha":256,"x_min":0,"x_max":0,"o":"m 127 1081 l 165 1022 l 231 1022 l 127 1186 l 24 1022 l 90 1022 z m 214 0 l 214 972 l 41 972 l 41 0 z "},"ï":{"ha":256,"x_min":0,"x_max":0,"o":"m 120 1087 l 120 1127 l 73 1174 l 33 1174 l -14 1127 l -14 1087 l 33 1040 l 73 1040 z m 16 1107 l 53 1144 l 90 1107 l 53 1070 z m 222 1174 l 182 1174 l 135 1127 l 135 1087 l 182 1040 l 222 1040 l 269 1087 l 269 1127 z m 202 1070 l 165 1107 l 202 1144 l 239 1107 z m 214 0 l 214 972 l 41 972 l 41 0 z "},"ð":{"ha":590,"x_min":0,"x_max":0,"o":"m 569 899 l 486 899 l 471 972 l 298 972 l 313 899 l 227 899 l 227 799 l 334 799 l 352 713 l 109 713 l 22 627 l 22 86 l 109 0 l 456 0 l 543 86 l 543 627 l 507 799 l 569 799 z m 370 173 l 195 173 l 195 540 l 370 540 z "},"ñ":{"ha":604,"x_min":0,"x_max":0,"o":"m 419 1061 l 419 1147 b 185 1147 326 1224 279 1071 l 185 1061 b 419 1061 279 985 325 1138 z m 390 972 l 390 658 l 314 734 b 215 972 250 797 215 883 l 42 972 l 42 0 l 215 0 l 215 589 l 290 514 b 390 275 354 450 390 364 l 390 0 l 562 0 l 562 972 z "},"ò":{"ha":596,"x_min":0,"x_max":0,"o":"m 374 1022 l 320 1186 l 226 1186 l 306 1022 z m 472 972 l 124 972 l 37 886 l 37 86 l 124 0 l 472 0 l 558 86 l 558 886 z m 385 173 l 210 173 l 210 799 l 385 799 z "},"ó":{"ha":596,"x_min":0,"x_max":0,"o":"m 389 1186 l 295 1186 l 241 1022 l 309 1022 z m 472 972 l 124 972 l 37 886 l 37 86 l 124 0 l 472 0 l 558 86 l 558 886 z m 385 173 l 210 173 l 210 799 l 385 799 z "},"ô":{"ha":596,"x_min":0,"x_max":0,"o":"m 298 1081 l 335 1022 l 402 1022 l 298 1186 l 194 1022 l 261 1022 z m 472 972 l 124 972 l 37 886 l 37 86 l 124 0 l 472 0 l 558 86 l 558 886 z m 385 173 l 210 173 l 210 799 l 385 799 z "},"õ":{"ha":596,"x_min":0,"x_max":0,"o":"m 415 1061 l 415 1147 b 181 1147 321 1224 275 1071 l 181 1061 b 415 1061 275 985 321 1138 z m 472 972 l 124 972 l 38 886 l 38 86 l 124 0 l 472 0 l 558 86 l 558 886 z m 385 173 l 210 173 l 210 799 l 385 799 z "},"ö":{"ha":596,"x_min":0,"x_max":0,"o":"m 243 1040 l 290 1087 l 290 1127 l 243 1174 l 204 1174 l 156 1127 l 156 1087 l 204 1040 z m 223 1144 l 261 1107 l 223 1070 l 186 1107 z m 392 1040 l 439 1087 l 439 1127 l 392 1174 l 352 1174 l 305 1127 l 305 1087 l 352 1040 z m 372 1144 l 409 1107 l 372 1070 l 335 1107 z m 472 972 l 124 972 l 38 886 l 38 86 l 124 0 l 472 0 l 558 86 l 558 886 z m 385 173 l 210 173 l 210 799 l 385 799 z "},"÷":{"ha":310,"x_min":0,"x_max":0,"o":"m 199 544 l 199 632 l 111 632 l 111 544 z m 284 426 l 284 526 l 25 526 l 25 426 z m 199 319 l 199 407 l 111 407 l 111 319 z "},"ø":{"ha":600,"x_min":0,"x_max":0,"o":"m 594 1053 l 504 1053 l 469 972 l 126 972 l 39 886 l 39 86 l 69 57 l 6 -89 l 96 -89 l 134 0 l 474 0 l 560 86 l 560 886 l 533 913 l 594 1053 z m 387 173 l 212 173 l 212 178 l 387 579 z m 387 785 l 212 384 l 212 799 l 387 799 z "},"ù":{"ha":601,"x_min":0,"x_max":0,"o":"m 361 1022 l 308 1186 l 213 1186 l 294 1022 z m 388 972 l 388 173 l 213 173 l 213 972 l 40 972 l 40 86 l 127 0 l 475 0 l 561 86 l 561 972 z "},"ú":{"ha":601,"x_min":0,"x_max":0,"o":"m 403 1186 l 309 1186 l 255 1022 l 323 1022 z m 388 972 l 388 173 l 213 173 l 213 972 l 40 972 l 40 86 l 127 0 l 475 0 l 561 86 l 561 972 z "},"û":{"ha":601,"x_min":0,"x_max":0,"o":"m 301 1081 l 338 1022 l 404 1022 l 301 1186 l 197 1022 l 263 1022 z m 388 972 l 388 173 l 213 173 l 213 972 l 40 972 l 40 86 l 127 0 l 475 0 l 561 86 l 561 972 z "},"ü":{"ha":601,"x_min":0,"x_max":0,"o":"m 246 1040 l 293 1087 l 293 1127 l 246 1174 l 206 1174 l 159 1127 l 159 1087 l 206 1040 z m 226 1144 l 263 1107 l 226 1070 l 189 1107 z m 395 1040 l 442 1087 l 442 1127 l 395 1174 l 355 1174 l 308 1127 l 308 1087 l 355 1040 z m 375 1144 l 412 1107 l 375 1070 l 338 1107 z m 388 972 l 388 173 l 213 173 l 213 972 l 40 972 l 40 86 l 127 0 l 475 0 l 561 86 l 561 972 z "},"ý":{"ha":529,"x_min":0,"x_max":0,"o":"m 367 1186 l 273 1186 l 219 1022 l 287 1022 z m 525 972 l 352 972 l 352 707 l 259 612 l 177 692 l 177 972 l 4 972 l 4 620 l 178 443 l 178 0 l 351 0 l 351 450 l 525 620 z "},"þ":{"ha":583,"x_min":0,"x_max":0,"o":"m 476 816 l 214 816 l 214 1117 l 42 1117 l 42 -145 l 214 -145 l 214 157 l 476 157 l 562 243 l 562 729 z m 389 329 l 214 329 l 214 643 l 389 643 z "},"ÿ":{"ha":529,"x_min":0,"x_max":0,"o":"m 210 1040 l 257 1087 l 257 1127 l 210 1174 l 170 1174 l 123 1127 l 123 1087 l 170 1040 z m 190 1144 l 227 1107 l 190 1070 l 153 1107 z m 359 1040 l 406 1087 l 406 1127 l 359 1174 l 319 1174 l 272 1127 l 272 1087 l 319 1040 z m 339 1144 l 376 1107 l 339 1070 l 302 1107 z m 525 972 l 352 972 l 352 707 l 259 612 l 177 692 l 177 972 l 4 972 l 4 620 l 178 443 l 178 0 l 351 0 l 351 450 l 525 620 z "},"ı":{"ha":254,"x_min":0,"x_max":0,"o":"m 213 0 l 213 765 l 40 765 l 40 0 z m 213 799 l 213 972 l 40 972 l 40 799 z "},"Ł":{"ha":592,"x_min":0,"x_max":0,"o":"m 422 304 l 422 173 l 247 173 l 247 474 l 335 528 l 335 639 l 247 585 l 247 972 l 74 972 l 74 477 l 10 437 l 10 326 l 74 366 l 74 86 l 161 0 l 508 0 l 595 86 l 595 304 z "},"ł":{"ha":592,"x_min":0,"x_max":0,"o":"m 422 304 l 422 173 l 247 173 l 247 474 l 335 528 l 335 639 l 247 585 l 247 972 l 74 972 l 74 477 l 10 437 l 10 326 l 74 366 l 74 86 l 161 0 l 508 0 l 595 86 l 595 304 z "},"Œ":{"ha":926,"x_min":0,"x_max":0,"o":"m 906 668 l 906 886 l 819 972 l 124 972 l 37 886 l 37 86 l 124 0 l 819 0 l 906 86 l 906 304 l 733 304 l 733 173 l 558 173 l 558 280 l 765 486 l 558 692 l 558 799 l 733 799 l 733 668 z m 385 352 l 385 173 l 210 173 l 210 799 l 385 799 l 385 620 l 520 486 z "},"œ":{"ha":926,"x_min":0,"x_max":0,"o":"m 906 668 l 906 886 l 819 972 l 124 972 l 37 886 l 37 86 l 124 0 l 819 0 l 906 86 l 906 304 l 733 304 l 733 173 l 558 173 l 558 280 l 765 486 l 558 692 l 558 799 l 733 799 l 733 668 z m 385 352 l 385 173 l 210 173 l 210 799 l 385 799 l 385 620 l 520 486 z "},"Š":{"ha":571,"x_min":0,"x_max":0,"o":"m 391 1186 l 324 1186 l 287 1127 l 250 1186 l 183 1186 l 287 1022 z m 547 706 l 547 886 b 461 972 513 919 495 938 l 113 972 b 26 886 79 938 61 919 l 26 626 l 374 280 l 374 173 l 199 173 l 199 327 l 26 327 l 26 86 l 113 0 l 461 0 l 547 86 l 547 352 l 199 698 l 199 799 l 374 799 l 374 706 z "},"š":{"ha":571,"x_min":0,"x_max":0,"o":"m 391 1186 l 324 1186 l 287 1127 l 250 1186 l 183 1186 l 287 1022 z m 547 706 l 547 886 b 461 972 513 919 495 938 l 113 972 b 26 886 79 938 61 919 l 26 626 l 374 280 l 374 173 l 199 173 l 199 327 l 26 327 l 26 86 l 113 0 l 461 0 l 547 86 l 547 352 l 199 698 l 199 799 l 374 799 l 374 706 z "},"Ÿ":{"ha":529,"x_min":0,"x_max":0,"o":"m 210 1040 l 257 1087 l 257 1127 l 210 1174 l 170 1174 l 123 1127 l 123 1087 l 170 1040 z m 190 1144 l 227 1107 l 190 1070 l 153 1107 z m 359 1040 l 406 1087 l 406 1127 l 359 1174 l 319 1174 l 272 1127 l 272 1087 l 319 1040 z m 339 1144 l 376 1107 l 339 1070 l 302 1107 z m 525 972 l 352 972 l 352 707 l 259 612 l 177 692 l 177 972 l 4 972 l 4 620 l 178 443 l 178 0 l 351 0 l 351 450 l 525 620 z "},"Ž":{"ha":563,"x_min":0,"x_max":0,"o":"m 357 1186 l 291 1186 l 254 1127 l 216 1186 l 150 1186 l 254 1022 z m 541 620 l 541 972 l 21 972 l 21 799 l 369 799 l 369 692 l 21 347 l 21 0 l 541 0 l 541 173 l 194 173 l 194 274 z "},"ž":{"ha":563,"x_min":0,"x_max":0,"o":"m 357 1186 l 291 1186 l 254 1127 l 216 1186 l 150 1186 l 254 1022 z m 541 620 l 541 972 l 21 972 l 21 799 l 369 799 l 369 692 l 21 347 l 21 0 l 541 0 l 541 173 l 194 173 l 194 274 z "},"ˆ":{"ha":244,"x_min":0,"x_max":0,"o":"m 122 972 l 18 807 l 85 807 l 122 867 l 159 807 l 226 807 z "},"ˇ":{"ha":242,"x_min":0,"x_max":0,"o":"m 158 972 l 120 913 l 83 972 l 17 972 l 120 807 l 224 972 z "},"˜":{"ha":285,"x_min":0,"x_max":0,"o":"m 25 933 l 25 847 b 259 847 119 770 165 924 l 259 933 b 25 933 165 1009 119 856 z "},"–":{"ha":324,"x_min":0,"x_max":0,"o":"m 300 427 l 300 527 l 24 527 l 24 427 z "},"—":{"ha":372,"x_min":0,"x_max":0,"o":"m 348 427 l 348 527 l 24 527 l 24 427 z "},"‘":{"ha":200,"x_min":0,"x_max":0,"o":"m 84 1007 l 26 1007 l 26 797 l 179 797 z "},"’":{"ha":183,"x_min":0,"x_max":0,"o":"m 4 1007 l 99 797 l 157 797 l 157 1007 z "},"‚":{"ha":250,"x_min":0,"x_max":0,"o":"m 21 157 l 147 -75 l 223 -75 l 223 157 z "},"‛":{"ha":200,"x_min":0,"x_max":0,"o":"m 28 972 l 28 762 l 85 762 l 180 972 z "},"“":{"ha":357,"x_min":0,"x_max":0,"o":"m 26 1007 l 26 797 l 179 797 l 84 1007 z m 240 1007 l 183 1007 l 183 797 l 335 797 z "},"”":{"ha":340,"x_min":0,"x_max":0,"o":"m 161 1007 l 256 797 l 313 797 l 313 1007 z m 99 797 l 157 797 l 157 1007 l 4 1007 z "},"„":{"ha":468,"x_min":0,"x_max":0,"o":"m 147 -75 l 223 -75 l 223 157 l 21 157 z m 238 157 l 365 -75 l 441 -75 l 441 157 z "},"†":{"ha":464,"x_min":0,"x_max":0,"o":"m 394 687 l 294 687 l 294 972 l 170 972 l 170 687 l 69 687 l 69 587 l 170 587 l 170 -8 l 294 -8 l 294 587 l 394 587 z "},"‡":{"ha":381,"x_min":0,"x_max":0,"o":"m 353 681 l 353 781 l 252 781 l 252 972 l 128 972 l 128 781 l 28 781 l 28 681 l 128 681 l 128 593 l 28 593 l 28 493 l 128 493 l 128 -8 l 252 -8 l 252 493 l 353 493 l 353 593 l 252 593 l 252 681 z "},"•":{"ha":292,"x_min":0,"x_max":0,"o":"m 181 609 l 110 609 l 26 525 l 26 455 l 110 371 l 181 371 l 265 455 l 265 525 z "},"…":{"ha":733,"x_min":0,"x_max":0,"o":"m 244 78 l 133 189 l 22 78 l 133 -32 z m 477 78 l 366 189 l 256 78 l 366 -32 z m 710 78 l 600 189 l 489 78 l 600 -32 z "},"‰":{"ha":1056,"x_min":0,"x_max":0,"o":"m 291 529 l 291 929 b 248 972 274 946 265 955 l 74 972 b 31 929 57 955 47 946 l 31 529 l 74 486 l 248 486 z m 204 573 l 117 573 l 117 713 l 204 626 z m 204 748 l 117 835 l 117 886 l 204 886 z m 520 486 b 477 443 503 469 493 460 l 477 43 l 520 0 l 694 0 l 737 43 l 737 443 b 694 486 720 460 711 469 z m 651 86 l 563 86 l 563 227 l 651 140 z m 651 262 l 563 349 l 563 400 l 651 400 z m 985 486 l 811 486 b 767 443 794 469 784 460 l 767 43 l 811 0 l 985 0 l 1028 43 l 1028 443 b 985 486 1011 460 1001 469 z m 941 86 l 854 86 l 854 227 l 941 140 z m 941 262 l 854 349 l 854 400 l 941 400 z m 511 885 l 153 93 l 256 93 l 615 885 z "},"‹":{"ha":301,"x_min":0,"x_max":0,"o":"m 268 733 l 10 493 l 268 254 l 268 408 l 175 493 l 268 579 z "},"›":{"ha":301,"x_min":0,"x_max":0,"o":"m 33 733 l 33 579 l 126 493 l 33 408 l 33 254 l 291 493 z "},"⁄":{"ha":678,"x_min":0,"x_max":0,"o":"m 497 1065 l 69 -86 l 181 -86 l 609 1065 z "},"€":{"ha":656,"x_min":0,"x_max":0,"o":"m 620 668 l 620 886 l 533 972 l 185 972 l 99 886 l 99 593 l 31 593 l 31 492 l 99 492 l 99 459 l 31 459 l 31 359 l 99 359 l 99 86 l 185 0 l 533 0 l 620 86 l 620 304 l 446 304 l 446 173 l 271 173 l 271 359 l 426 359 l 426 459 l 271 459 l 271 492 l 426 492 l 426 593 l 271 593 l 271 799 l 446 799 l 446 668 z "},"™":{"ha":358,"x_min":0,"x_max":0,"o":"m 273 978 l 238 838 l 204 978 l 25 978 l 25 933 l 68 933 l 68 709 l 114 709 l 114 933 l 149 933 l 149 709 l 195 709 l 195 851 l 214 737 l 262 737 l 281 851 l 281 709 l 327 709 l 327 978 z "},"−":{"ha":288,"x_min":0,"x_max":0,"o":"m 263 427 l 263 527 l 24 527 l 24 427 z "}}}
